<?xml version="1.0" standalone="no"?>
<!DOCTYPE svg PUBLIC "-//W3C//DTD SVG 20010904//EN"
 "http://www.w3.org/TR/2001/REC-SVG-20010904/DTD/svg10.dtd">
<svg version="1.0" xmlns="http://www.w3.org/2000/svg"
 width="512.000000pt" height="512.000000pt" viewBox="0 0 512.000000 512.000000"
 preserveAspectRatio="xMidYMid meet">

<g transform="translate(0.000000,512.000000) scale(0.100000,-0.100000)"
fill="#000000" stroke="none">
<path d="M1990 3834 c-6 -16 -10 -364 -10 -922 l0 -897 -213 213 c-135 135
-219 212 -232 212 -24 0 -255 -227 -255 -250 0 -20 911 -930 930 -930 20 0
930 911 930 930 0 23 -232 250 -255 250 -13 0 -95 -75 -230 -210 -115 -115
-213 -210 -217 -210 -5 0 -7 312 -6 693 l3 692 686 5 c561 4 689 7 702 19 15
12 17 39 17 203 0 111 -4 197 -10 209 -10 19 -31 19 -921 19 l-909 0 -10 -26z"/>
</g>
</svg>
